<svg width="32" height="32" viewBox="0 0 32 32" fill="none" xmlns="http://www.w3.org/2000/svg">
<rect x="0.5" y="0.5" width="31" height="31" rx="15.5" fill="#1A5319"/>
<path d="M23.0619 20.4836C23.0619 20.7386 23.0053 21.0007 22.8848 21.2557C22.7644 21.5107 22.6086 21.7515 22.4032 21.9782C22.0561 22.3607 21.6736 22.6369 21.2415 22.814C20.8165 22.9911 20.3561 23.0832 19.8603 23.0832C19.1378 23.0832 18.3657 22.9132 17.5511 22.5661C16.7365 22.219 15.9219 21.7515 15.1144 21.1636C14.2998 20.5686 13.5278 19.9098 12.7911 19.1803C12.0615 18.4436 11.4028 17.6715 10.8148 16.864C10.234 16.0565 9.7665 15.249 9.4265 14.4486C9.0865 13.6411 8.9165 12.869 8.9165 12.1323C8.9165 11.6507 9.0015 11.1903 9.1715 10.7653C9.3415 10.3332 9.61067 9.9365 9.98609 9.58234C10.4394 9.13609 10.9353 8.9165 11.4594 8.9165C11.6578 8.9165 11.8561 8.959 12.0332 9.044C12.2173 9.129 12.3803 9.2565 12.5078 9.44067L14.1511 11.7569C14.2786 11.934 14.3707 12.0969 14.4344 12.2528C14.4982 12.4015 14.5336 12.5503 14.5336 12.6848C14.5336 12.8548 14.484 13.0248 14.3848 13.1878C14.2928 13.3507 14.1582 13.5207 13.9882 13.6907L13.4498 14.2503C13.3719 14.3282 13.3365 14.4203 13.3365 14.5336C13.3365 14.5903 13.3436 14.6398 13.3578 14.6965C13.379 14.7532 13.4003 14.7957 13.4144 14.8382C13.5419 15.0719 13.7615 15.3765 14.0732 15.7448C14.3919 16.1132 14.7319 16.4886 15.1003 16.864C15.4828 17.2394 15.8511 17.5865 16.2265 17.9053C16.5948 18.2169 16.8994 18.4294 17.1403 18.5569C17.1757 18.5711 17.2182 18.5923 17.2678 18.6136C17.3244 18.6348 17.3811 18.6419 17.4448 18.6419C17.5653 18.6419 17.6573 18.5994 17.7353 18.5215L18.2736 17.9903C18.4507 17.8132 18.6207 17.6786 18.7836 17.5936C18.9465 17.4944 19.1094 17.4448 19.2865 17.4448C19.4211 17.4448 19.5628 17.4732 19.7186 17.5369C19.8744 17.6007 20.0373 17.6928 20.2144 17.8132L22.559 19.4778C22.7432 19.6053 22.8707 19.754 22.9486 19.9311C23.0194 20.1082 23.0619 20.2853 23.0619 20.4836Z" stroke="white" stroke-width="1.5" stroke-miterlimit="10"/>
<path d="M20.6042 13.8747C20.6042 13.4497 20.2713 12.798 19.7754 12.2668C19.3221 11.778 18.72 11.3955 18.125 11.3955" stroke="white" stroke-width="1.5" stroke-linecap="round" stroke-linejoin="round"/>
<path d="M23.0833 13.8748C23.0833 11.1336 20.8662 8.9165 18.125 8.9165" stroke="white" stroke-width="1.5" stroke-linecap="round" stroke-linejoin="round"/>
</svg>
