<svg width="46" height="46" viewBox="0 0 46 46" fill="none" xmlns="http://www.w3.org/2000/svg">
<rect x="0.442383" width="45.4426" height="45.4426" rx="22.7213" fill="#1A5319"/>
<path d="M28.3277 12.3931H17.9999C15.1479 12.3931 12.8359 14.705 12.8359 17.557V27.8849C12.8359 30.7368 15.1479 33.0488 17.9999 33.0488H28.3277C31.1797 33.0488 33.4917 30.7368 33.4917 27.8849V17.557C33.4917 14.705 31.1797 12.3931 28.3277 12.3931Z" stroke="white" stroke-width="1.54918" stroke-linecap="round" stroke-linejoin="round"/>
<path d="M27.2948 22.0706C27.4222 22.9301 27.2754 23.808 26.8752 24.5792C26.475 25.3505 25.8418 25.976 25.0656 26.3666C24.2895 26.7573 23.4099 26.8933 22.552 26.7552C21.6941 26.6172 20.9016 26.2122 20.2871 25.5977C19.6727 24.9833 19.2677 24.1908 19.1296 23.3329C18.9916 22.475 19.1276 21.5954 19.5182 20.8192C19.9089 20.0431 20.5343 19.4099 21.3056 19.0097C22.0769 18.6095 22.9547 18.4626 23.8143 18.5901C24.691 18.7201 25.5027 19.1287 26.1295 19.7554C26.7562 20.3821 27.1648 21.1938 27.2948 22.0706Z" stroke="white" stroke-width="1.54918" stroke-linecap="round" stroke-linejoin="round"/>
<path d="M28.8447 17.0405H28.8547" stroke="white" stroke-width="1.54918" stroke-linecap="round" stroke-linejoin="round"/>
</svg>
