<svg width="47" height="46" viewBox="0 0 47 46" fill="none" xmlns="http://www.w3.org/2000/svg">
<rect x="0.884766" width="45.4426" height="45.4426" rx="22.7213" fill="#1A5319"/>
<g clip-path="url(#clip0_393_1199)">
<path d="M34.9674 13.4259C33.9784 14.1235 32.8834 14.6571 31.7245 15.0061C31.1025 14.2909 30.2758 13.784 29.3563 13.5539C28.4368 13.3238 27.4689 13.3817 26.5833 13.7197C25.6978 14.0577 24.9374 14.6595 24.4051 15.4437C23.8727 16.2279 23.594 17.1567 23.6068 18.1044V19.1372C21.7918 19.1843 19.9933 18.7818 18.3716 17.9655C16.7498 17.1492 15.3551 15.4281 14.3117 13.9423C14.3117 13.9423 10.1805 23.7538 19.4756 27.8849C17.3486 29.3287 14.8148 30.0527 12.2461 29.9505C21.5412 35.1144 32.9018 29.9505 32.9018 18.0735C32.9009 17.7858 32.8732 17.4988 32.8192 17.2162C33.8733 16.1767 34.6171 14.8643 34.9674 13.4259Z" stroke="white" stroke-width="1.54918" stroke-linecap="round" stroke-linejoin="round"/>
</g>
<defs>
<clipPath id="clip0_393_1199">
<rect width="24.7869" height="24.7869" fill="white" transform="translate(11.2129 10.3276)"/>
</clipPath>
</defs>
</svg>
