<svg width="45" height="45" viewBox="0 0 45 45" fill="none" xmlns="http://www.w3.org/2000/svg">
<rect x="0.328125" width="44.6557" height="44.6557" rx="22.3279" fill="#1A5319"/>
<path d="M17.5563 30.9276C19.0563 31.8276 20.8563 32.3276 22.6562 32.3276C28.1562 32.3276 32.6562 27.8276 32.6562 22.3276C32.6562 16.8276 28.1562 12.3276 22.6562 12.3276C17.1562 12.3276 12.6562 16.8276 12.6562 22.3276C12.6562 24.1276 13.1562 25.8276 13.9562 27.3276L13.0967 30.6336C12.902 31.3826 13.5952 32.0594 14.3392 31.8468L17.5563 30.9276Z" stroke="white" stroke-width="1.5" stroke-miterlimit="10" stroke-linecap="round" stroke-linejoin="round"/>
<path d="M27.1562 25.1761C27.1562 25.3381 27.1202 25.5046 27.0436 25.6666C26.967 25.8286 26.8678 25.9816 26.7371 26.1256C26.5163 26.3686 26.2729 26.5441 25.998 26.6566C25.7276 26.7691 25.4347 26.8276 25.1192 26.8276C24.6595 26.8276 24.1683 26.7196 23.65 26.4991C23.1317 26.2786 22.6134 25.9816 22.0997 25.6081C21.5814 25.2301 21.0902 24.8116 20.6214 24.3481C20.1573 23.8801 19.7381 23.3896 19.3641 22.8766C18.9945 22.3636 18.6971 21.8506 18.4807 21.3421C18.2644 20.8291 18.1562 20.3386 18.1562 19.8706C18.1562 19.5646 18.2103 19.2721 18.3185 19.0021C18.4267 18.7276 18.5979 18.4756 18.8368 18.2506C19.1252 17.9671 19.4407 17.8276 19.7742 17.8276C19.9004 17.8276 20.0266 17.8546 20.1392 17.9086C20.2564 17.9626 20.3601 18.0436 20.4412 18.1606L21.4867 19.6321C21.5679 19.7446 21.6265 19.8481 21.667 19.9471C21.7076 20.0416 21.7301 20.1361 21.7301 20.2216C21.7301 20.3296 21.6986 20.4376 21.6355 20.5411C21.5769 20.6446 21.4913 20.7526 21.3831 20.8606L21.0406 21.2161C20.991 21.2656 20.9685 21.3241 20.9685 21.3961C20.9685 21.4321 20.973 21.4636 20.982 21.4996C20.9955 21.5356 21.009 21.5626 21.018 21.5896C21.0992 21.7381 21.2389 21.9316 21.4372 22.1656C21.64 22.3996 21.8563 22.6381 22.0907 22.8766C22.334 23.1151 22.5684 23.3356 22.8072 23.5381C23.0416 23.7361 23.2354 23.8711 23.3886 23.9521C23.4111 23.9611 23.4382 23.9746 23.4697 23.9881C23.5058 24.0016 23.5418 24.0061 23.5824 24.0061C23.659 24.0061 23.7176 23.9791 23.7672 23.9296L24.1097 23.5921C24.2223 23.4796 24.3305 23.3941 24.4342 23.3401C24.5378 23.2771 24.6415 23.2456 24.7541 23.2456C24.8398 23.2456 24.9299 23.2636 25.0291 23.3041C25.1282 23.3446 25.2319 23.4031 25.3445 23.4796L26.8363 24.5371C26.9534 24.6181 27.0346 24.7126 27.0841 24.8251C27.1292 24.9376 27.1562 25.0501 27.1562 25.1761Z" stroke="white" stroke-width="1.5" stroke-miterlimit="10"/>
</svg>
