<svg width="47" height="46" viewBox="0 0 47 46" fill="none" xmlns="http://www.w3.org/2000/svg">
<rect x="0.983398" width="45.4457" height="45.4457" rx="22.7229" fill="#1A5319"/>
<path d="M28.8707 30.9861H18.5415C15.4428 30.9861 13.377 28.9203 13.377 25.8216V19.6241C13.377 16.5253 15.4428 14.4595 18.5415 14.4595H28.8707C31.9695 14.4595 34.0353 16.5253 34.0353 19.6241V25.8216C34.0353 28.9203 31.9695 30.9861 28.8707 30.9861Z" stroke="white" stroke-width="1.5" stroke-miterlimit="10" stroke-linecap="round" stroke-linejoin="round"/>
<path d="M23.0868 20.1401L25.6691 21.6895C26.5987 22.3093 26.5987 23.2389 25.6691 23.8586L23.0868 25.408C22.0539 26.0278 21.2275 25.5113 21.2275 24.3751V21.2763C21.2275 19.9336 22.0539 19.5204 23.0868 20.1401Z" stroke="white" stroke-width="1.5" stroke-miterlimit="10" stroke-linecap="round" stroke-linejoin="round"/>
</svg>
