<svg width="91" height="91" viewBox="0 0 91 91" fill="none" xmlns="http://www.w3.org/2000/svg">
<rect x="0.5" y="0.5" width="90" height="90" rx="45" fill="#1A5319"/>
<path d="M64.1937 57.3687C64.1937 58.0437 64.0437 58.7375 63.725 59.4125C63.4062 60.0875 62.9938 60.725 62.45 61.325C61.5313 62.3375 60.5187 63.0688 59.375 63.5375C58.25 64.0063 57.0313 64.25 55.7188 64.25C53.8063 64.25 51.7625 63.8 49.6062 62.8813C47.45 61.9625 45.2937 60.725 43.1562 59.1688C41 57.5938 38.9562 55.85 37.0062 53.9187C35.075 51.9687 33.3312 49.925 31.775 47.7875C30.2375 45.65 29 43.5125 28.1 41.3938C27.2 39.2563 26.75 37.2125 26.75 35.2625C26.75 33.9875 26.975 32.7688 27.425 31.6438C27.875 30.5 28.5875 29.45 29.5812 28.5125C30.7812 27.3313 32.0938 26.75 33.4813 26.75C34.0063 26.75 34.5313 26.8625 35 27.0875C35.4875 27.3125 35.9188 27.65 36.2563 28.1375L40.6063 34.2688C40.9438 34.7375 41.1875 35.1688 41.3562 35.5813C41.525 35.975 41.6188 36.3688 41.6188 36.725C41.6188 37.175 41.4875 37.625 41.225 38.0562C40.9813 38.4875 40.625 38.9375 40.175 39.3875L38.75 40.8687C38.5437 41.075 38.45 41.3188 38.45 41.6188C38.45 41.7688 38.4688 41.9 38.5063 42.05C38.5625 42.2 38.6188 42.3125 38.6563 42.425C38.9938 43.0437 39.575 43.85 40.4 44.825C41.2437 45.8 42.1437 46.7938 43.1187 47.7875C44.1312 48.7813 45.1062 49.7 46.1 50.5437C47.075 51.3687 47.8812 51.9312 48.5187 52.2687C48.6125 52.3062 48.725 52.3625 48.8562 52.4187C49.0062 52.475 49.1562 52.4937 49.325 52.4937C49.6437 52.4937 49.8875 52.3813 50.0937 52.175L51.5188 50.7688C51.9875 50.3 52.4375 49.9437 52.8688 49.7188C53.3 49.4562 53.7312 49.325 54.2 49.325C54.5562 49.325 54.9313 49.4 55.3438 49.5688C55.7562 49.7375 56.1875 49.9813 56.6563 50.3L62.8625 54.7062C63.35 55.0437 63.6875 55.4375 63.8937 55.9062C64.0812 56.375 64.1937 56.8437 64.1937 57.3687Z" stroke="white" stroke-width="2.8125" stroke-miterlimit="10"/>
<path d="M57.6875 39.875C57.6875 38.75 56.8062 37.025 55.4937 35.6188C54.2937 34.325 52.7 33.3125 51.125 33.3125" stroke="white" stroke-width="2.8125" stroke-linecap="round" stroke-linejoin="round"/>
<path d="M64.25 39.875C64.25 32.6188 58.3812 26.75 51.125 26.75" stroke="white" stroke-width="2.8125" stroke-linecap="round" stroke-linejoin="round"/>
</svg>
