<svg width="1473" height="184" viewBox="0 0 1473 184" fill="none" xmlns="http://www.w3.org/2000/svg">
<g clip-path="url(#clip0_454_7968)">
<rect width="1473" height="184" fill="#D6EFD8"/>
<rect width="200" height="184" transform="matrix(-1 0 0 1 1473 0)" fill="#508D4E"/>
<path d="M1273 184C1273 159.837 1278.17 135.91 1288.22 113.586C1298.28 91.2623 1313.01 70.9783 1331.58 53.8923C1350.15 36.8064 1372.2 23.253 1396.46 14.0062C1420.73 4.7593 1446.74 -1.05621e-06 1473 0L1473 184L1273 184Z" fill="#1A5319"/>
<rect x="1273" y="184" width="200" height="184" transform="rotate(-180 1273 184)" fill="#508D4E"/>
<rect x="1273" y="86" width="200" height="86" transform="rotate(-180 1273 86)" fill="#1D1F22"/>
<path d="M1173 173.88C1117.77 173.88 1073 132.69 1073 81.88L1273 81.88C1273 132.69 1228.23 173.88 1173 173.88Z" fill="#1D1F22"/>
<rect width="200" height="184" transform="matrix(1 0 0 -1 0 184)" fill="#508D4E"/>
<path d="M200 0C200 24.1632 194.827 48.0898 184.776 70.4137C174.725 92.7377 159.993 113.022 141.421 130.108C122.85 147.194 100.802 160.747 76.5367 169.994C52.2716 179.241 26.2644 184 0 184L1.52588e-05 0H200Z" fill="#1A5319"/>
<rect x="200" width="200" height="184" fill="#508D4E"/>
<rect x="200" y="98" width="200" height="86" fill="#1D1F22"/>
<path d="M300 10.12C355.228 10.12 400 51.3098 400 102.12L200 102.12C200 51.3098 244.772 10.12 300 10.12Z" fill="#1D1F22"/>
</g>
<defs>
<clipPath id="clip0_454_7968">
<rect width="1473" height="184" fill="white"/>
</clipPath>
</defs>
</svg>
