<svg width="76" height="14" viewBox="0 0 76 14" fill="none" xmlns="http://www.w3.org/2000/svg">
<path d="M8.08159 2.29745L9.05865 4.25156C9.19189 4.52359 9.54718 4.7845 9.84696 4.83447L11.6179 5.1287C12.7504 5.31745 13.0169 6.13906 12.2008 6.94958L10.824 8.32634C10.5909 8.5595 10.4632 9.00917 10.5353 9.33116L10.9295 11.0355C11.2404 12.3845 10.5242 12.9063 9.33068 12.2013L7.67079 11.2187C7.37101 11.041 6.87693 11.041 6.5716 11.2187L4.91171 12.2013C3.72369 12.9063 3.002 12.3789 3.31288 11.0355L3.70704 9.33116C3.77921 9.00917 3.65152 8.5595 3.41836 8.32634L2.04159 6.94958C1.23108 6.13906 1.492 5.31745 2.6245 5.1287L4.39542 4.83447C4.68965 4.7845 5.04494 4.52359 5.17818 4.25156L6.15523 2.29745C6.68818 1.23711 7.5542 1.23711 8.08159 2.29745Z" fill="#F9EF28"/>
<path d="M23.6255 2.29745L24.6026 4.25156C24.7358 4.52359 25.0911 4.7845 25.3909 4.83447L27.1618 5.1287C28.2943 5.31745 28.5608 6.13906 27.7447 6.94958L26.368 8.32634C26.1348 8.5595 26.0071 9.00917 26.0793 9.33116L26.4734 11.0355C26.7843 12.3845 26.0682 12.9063 24.8746 12.2013L23.2147 11.2187C22.915 11.041 22.4209 11.041 22.1155 11.2187L20.4557 12.2013C19.2676 12.9063 18.5459 12.3789 18.8568 11.0355L19.251 9.33116C19.3232 9.00917 19.1955 8.5595 18.9623 8.32634L17.5855 6.94958C16.775 6.13906 17.0359 5.31745 18.1684 5.1287L19.9394 4.83447C20.2336 4.7845 20.5889 4.52359 20.7221 4.25156L21.6992 2.29745C22.2321 1.23711 23.0982 1.23711 23.6255 2.29745Z" fill="#F9EF28"/>
<path d="M39.17 2.29745L40.147 4.25156C40.2803 4.52359 40.6356 4.7845 40.9353 4.83447L42.7063 5.1287C43.8388 5.31745 44.1052 6.13906 43.2892 6.94958L41.9124 8.32634C41.6792 8.5595 41.5516 9.00917 41.6237 9.33116L42.0179 11.0355C42.3288 12.3845 41.6126 12.9063 40.4191 12.2013L38.7592 11.2187C38.4594 11.041 37.9653 11.041 37.66 11.2187L36.0001 12.2013C34.8121 12.9063 34.0904 12.3789 34.4013 11.0355L34.7954 9.33116C34.8676 9.00917 34.7399 8.5595 34.5067 8.32634L33.13 6.94958C32.3195 6.13906 32.5804 5.31745 33.7129 5.1287L35.4838 4.83447C35.778 4.7845 36.1333 4.52359 36.2666 4.25156L37.2436 2.29745C37.7766 1.23711 38.6426 1.23711 39.17 2.29745Z" fill="#F9EF28"/>
<path d="M54.7139 2.29745L55.691 4.25156C55.8242 4.52359 56.1795 4.7845 56.4793 4.83447L58.2502 5.1287C59.3827 5.31745 59.6492 6.13906 58.8331 6.94958L57.4563 8.32634C57.2232 8.5595 57.0955 9.00917 57.1677 9.33116L57.5618 11.0355C57.8727 12.3845 57.1566 12.9063 55.963 12.2013L54.3031 11.2187C54.0033 11.041 53.5093 11.041 53.2039 11.2187L51.544 12.2013C50.356 12.9063 49.6343 12.3789 49.9452 11.0355L50.3394 9.33116C50.4115 9.00917 50.2838 8.5595 50.0507 8.32634L48.6739 6.94958C47.8634 6.13906 48.1243 5.31745 49.2568 5.1287L51.0277 4.83447C51.322 4.7845 51.6773 4.52359 51.8105 4.25156L52.7876 2.29745C53.3205 1.23711 54.1865 1.23711 54.7139 2.29745Z" fill="#F9EF28"/>
<path d="M70.2579 2.29745L71.2349 4.25156C71.3682 4.52359 71.7235 4.7845 72.0232 4.83447L73.7942 5.1287C74.9267 5.31745 75.1931 6.13906 74.3771 6.94958L73.0003 8.32634C72.7671 8.5595 72.6394 9.00917 72.7116 9.33116L73.1058 11.0355C73.4167 12.3845 72.7005 12.9063 71.5069 12.2013L69.8471 11.2187C69.5473 11.041 69.0532 11.041 68.7479 11.2187L67.088 12.2013C65.9 12.9063 65.1783 12.3789 65.4892 11.0355L65.8833 9.33116C65.9555 9.00917 65.8278 8.5595 65.5946 8.32634L64.2179 6.94958C63.4073 6.13906 63.6683 5.31745 64.8008 5.1287L66.5717 4.83447C66.8659 4.7845 67.2212 4.52359 67.3544 4.25156L68.3315 2.29745C68.8644 1.23711 69.7305 1.23711 70.2579 2.29745Z" fill="#F9EF28"/>
</svg>
