<svg width="69" height="68" viewBox="0 0 69 68" fill="none" xmlns="http://www.w3.org/2000/svg">
<rect x="0.796875" y="0.379303" width="67.2414" height="67.2414" rx="33.6207" fill="white"/>
<path d="M29.04 16.069H39.7986C48.7641 16.069 52.3504 19.6552 52.3504 28.6207V39.3793C52.3504 48.3448 48.7641 51.931 39.7986 51.931H29.04C20.0745 51.931 16.4883 48.3448 16.4883 39.3793V28.6207C16.4883 19.6552 20.0745 16.069 29.04 16.069Z" stroke="#1A5319" stroke-width="1.68103" stroke-linecap="round" stroke-linejoin="round"/>
<path d="M28.2695 39.8634L39.9964 28.1366" stroke="#1A5319" stroke-width="1.68103" stroke-linecap="round" stroke-linejoin="round"/>
<path d="M29.0044 31.0772C30.2224 31.0772 31.2098 30.0898 31.2098 28.8718C31.2098 27.6537 30.2224 26.6662 29.0044 26.6662C27.7863 26.6662 26.7988 27.6537 26.7988 28.8718C26.7988 30.0898 27.7863 31.0772 29.0044 31.0772Z" stroke="#1A5319" stroke-width="1.68103" stroke-linecap="round" stroke-linejoin="round"/>
<path d="M40.7309 41.3338C41.9489 41.3338 42.9364 40.3463 42.9364 39.1282C42.9364 37.9102 41.9489 36.9228 40.7309 36.9228C39.5128 36.9228 38.5254 37.9102 38.5254 39.1282C38.5254 40.3463 39.5128 41.3338 40.7309 41.3338Z" stroke="#1A5319" stroke-width="1.68103" stroke-linecap="round" stroke-linejoin="round"/>
</svg>
