<svg width="68" height="68" viewBox="0 0 68 68" fill="none" xmlns="http://www.w3.org/2000/svg">
<rect x="0.117188" y="0.379303" width="67.2414" height="67.2414" rx="33.6207" fill="white"/>
<path d="M49.7168 32.422C49.7168 41.1903 43.3513 49.4027 34.6547 51.8055C34.063 51.9669 33.4175 51.9669 32.8257 51.8055C24.1292 49.4027 17.7637 41.1903 17.7637 32.422V24.5503C17.7637 23.08 18.8754 21.4124 20.2561 20.8565L30.2437 16.7683C32.485 15.8538 35.0133 15.8538 37.2547 16.7683L47.2423 20.8565C48.6051 21.4124 49.7347 23.08 49.7347 24.5503L49.7168 32.422Z" stroke="#1A5319" stroke-width="1.68103" stroke-linecap="round" stroke-linejoin="round"/>
<path d="M33.7386 34.8966C35.7192 34.8966 37.3248 33.291 37.3248 31.3104C37.3248 29.3298 35.7192 27.7242 33.7386 27.7242C31.7579 27.7242 30.1523 29.3298 30.1523 31.3104C30.1523 33.291 31.7579 34.8966 33.7386 34.8966Z" stroke="#1A5319" stroke-width="1.68103" stroke-miterlimit="10" stroke-linecap="round" stroke-linejoin="round"/>
<path d="M33.7383 34.8965V40.2759" stroke="#1A5319" stroke-width="1.68103" stroke-miterlimit="10" stroke-linecap="round" stroke-linejoin="round"/>
</svg>
