<svg width="68" height="68" viewBox="0 0 68 68" fill="none" xmlns="http://www.w3.org/2000/svg">
<rect x="0.476562" y="0.379303" width="67.2414" height="67.2414" rx="33.6207" fill="white"/>
<path d="M24.5957 29.0869L34.0991 34.5917L43.5309 29.1228" stroke="#1A5319" stroke-width="1.68103" stroke-linecap="round" stroke-linejoin="round"/>
<path d="M34.0996 44.3462V34.5738" stroke="#1A5319" stroke-width="1.68103" stroke-linecap="round" stroke-linejoin="round"/>
<path d="M31.8763 23.7614L26.1384 26.9531C24.8474 27.6704 23.7715 29.4814 23.7715 30.9697V37.0483C23.7715 38.5366 24.8294 40.3476 26.1384 41.0648L31.8763 44.2566C33.0957 44.9379 35.1039 44.9379 36.3412 44.2566L42.0791 41.0648C43.3701 40.3476 44.446 38.5366 44.446 37.0483V30.9517C44.446 29.4635 43.3881 27.6524 42.0791 26.9352L36.3412 23.7435C35.1039 23.0621 33.0957 23.0621 31.8763 23.7614Z" stroke="#1A5319" stroke-width="1.68103" stroke-linecap="round" stroke-linejoin="round"/>
<path d="M52.0302 39.3793C52.0302 46.3186 46.4178 51.931 39.4785 51.931L41.3613 48.7931" stroke="#1A5319" stroke-width="1.68103" stroke-linecap="round" stroke-linejoin="round"/>
<path d="M16.168 28.6207C16.168 21.6814 21.7804 16.069 28.7197 16.069L26.837 19.2069" stroke="#1A5319" stroke-width="1.68103" stroke-linecap="round" stroke-linejoin="round"/>
</svg>
