<svg width="68" height="68" viewBox="0 0 68 68" fill="none" xmlns="http://www.w3.org/2000/svg">
<rect x="0.4375" y="0.379303" width="67.2414" height="67.2414" rx="33.6207" fill="white"/>
<path d="M44.8188 25.3214C44.7112 25.3035 44.5857 25.3035 44.4781 25.3214C42.0037 25.2317 40.0312 23.2055 40.0312 20.6952C40.0312 18.131 42.0933 16.069 44.6575 16.069C47.2216 16.069 49.2837 18.149 49.2837 20.6952C49.2657 23.2055 47.2933 25.2317 44.8188 25.3214Z" stroke="#1A5319" stroke-width="1.68103" stroke-linecap="round" stroke-linejoin="round"/>
<path d="M42.9718 38.3752C45.4283 38.7876 48.1359 38.3573 50.0366 37.0842C52.5649 35.3986 52.5649 32.6373 50.0366 30.9517C48.118 29.6786 45.3745 29.2483 42.918 29.6786" stroke="#1A5319" stroke-width="1.68103" stroke-linecap="round" stroke-linejoin="round"/>
<path d="M23.2461 25.3214C23.3537 25.3035 23.4792 25.3035 23.5868 25.3214C26.0613 25.2317 28.0337 23.2055 28.0337 20.6952C28.0337 18.131 25.9716 16.069 23.4075 16.069C20.8433 16.069 18.7812 18.149 18.7812 20.6952C18.7992 23.2055 20.7716 25.2317 23.2461 25.3214Z" stroke="#1A5319" stroke-width="1.68103" stroke-linecap="round" stroke-linejoin="round"/>
<path d="M25.0938 38.3752C22.6373 38.7876 19.9297 38.3573 18.029 37.0842C15.5007 35.3986 15.5007 32.6373 18.029 30.9517C19.9476 29.6786 22.6911 29.2483 25.1476 29.6786" stroke="#1A5319" stroke-width="1.68103" stroke-linecap="round" stroke-linejoin="round"/>
<path d="M34.061 38.7159C33.9534 38.6979 33.8279 38.6979 33.7203 38.7159C31.2459 38.6262 29.2734 36.6 29.2734 34.0897C29.2734 31.5255 31.3355 29.4634 33.8996 29.4634C36.4638 29.4634 38.5259 31.5434 38.5259 34.0897C38.5079 36.6 36.5355 38.6441 34.061 38.7159Z" stroke="#1A5319" stroke-width="1.68103" stroke-linecap="round" stroke-linejoin="round"/>
<path d="M28.8415 44.3641C26.3132 46.0497 26.3132 48.811 28.8415 50.4966C31.7105 52.4152 36.4084 52.4152 39.2774 50.4966C41.8057 48.811 41.8057 46.0497 39.2774 44.3641C36.4263 42.4635 31.7105 42.4635 28.8415 44.3641Z" stroke="#1A5319" stroke-width="1.68103" stroke-linecap="round" stroke-linejoin="round"/>
</svg>
