<svg width="68" height="68" viewBox="0 0 68 68" fill="none" xmlns="http://www.w3.org/2000/svg">
<rect x="0.757812" y="0.379303" width="67.2414" height="67.2414" rx="33.6207" fill="white"/>
<path d="M39.7596 16.069V34C39.7596 35.9724 38.1458 37.5862 36.1734 37.5862H16.4492V23.2414C16.4492 19.2786 19.6589 16.069 23.6216 16.069H39.7596Z" stroke="#1A5319" stroke-width="1.68103" stroke-linecap="round" stroke-linejoin="round"/>
<path d="M52.3113 37.5862V42.9655C52.3113 45.9421 49.9085 48.3448 46.932 48.3448H45.1389C45.1389 46.3724 43.5251 44.7586 41.5527 44.7586C39.5803 44.7586 37.9665 46.3724 37.9665 48.3448H30.794C30.794 46.3724 29.1803 44.7586 27.2078 44.7586C25.2354 44.7586 23.6216 46.3724 23.6216 48.3448H21.8285C18.852 48.3448 16.4492 45.9421 16.4492 42.9655V37.5862H36.1734C38.1458 37.5862 39.7596 35.9724 39.7596 34V21.4483H43.0589C44.3499 21.4483 45.5333 22.1476 46.1789 23.2593L49.2451 28.6207H46.932C45.9458 28.6207 45.1389 29.4276 45.1389 30.4138V35.7931C45.1389 36.7793 45.9458 37.5862 46.932 37.5862H52.3113Z" stroke="#1A5319" stroke-width="1.68103" stroke-linecap="round" stroke-linejoin="round"/>
<path d="M27.2073 51.931C29.1879 51.931 30.7935 50.3254 30.7935 48.3448C30.7935 46.3642 29.1879 44.7586 27.2073 44.7586C25.2267 44.7586 23.6211 46.3642 23.6211 48.3448C23.6211 50.3254 25.2267 51.931 27.2073 51.931Z" stroke="#1A5319" stroke-width="1.68103" stroke-linecap="round" stroke-linejoin="round"/>
<path d="M41.553 51.931C43.5336 51.931 45.1392 50.3254 45.1392 48.3448C45.1392 46.3642 43.5336 44.7586 41.553 44.7586C39.5724 44.7586 37.9668 46.3642 37.9668 48.3448C37.9668 50.3254 39.5724 51.931 41.553 51.931Z" stroke="#1A5319" stroke-width="1.68103" stroke-linecap="round" stroke-linejoin="round"/>
<path d="M52.3111 34V37.5862H46.9318C45.9456 37.5862 45.1387 36.7793 45.1387 35.7931V30.4138C45.1387 29.4276 45.9456 28.6207 46.9318 28.6207H49.2449L52.3111 34Z" stroke="#1A5319" stroke-width="1.68103" stroke-linecap="round" stroke-linejoin="round"/>
</svg>
